<svg height="37" viewBox="0 0 36 37" width="36" xmlns="http://www.w3.org/2000/svg"><path d="m1402 56.25c2.48438 0 4.82227-.46875 7.01367-1.40625 2.19141-.9375 4.10156-2.2207031 5.73047-3.8496094 1.62891-1.6289062 2.91211-3.5390625 3.84961-5.7304687.9375-2.1914063 1.40625-4.5292969 1.40625-7.0136719s-.46875-4.8222656-1.40625-7.0136719c-.9375-2.1914062-2.2207-4.1015625-3.84961-5.7304687-1.62891-1.6289063-3.53906-2.9121094-5.73047-3.8496094-2.1914-.9375-4.52929-1.40625-7.01367-1.40625s-4.82227.46875-7.01367 1.40625c-2.19141.9375-4.10156 2.2207031-5.73047 3.8496094-1.62891 1.6289062-2.91211 3.5390625-3.84961 5.7304687-.9375 2.1914063-1.40625 4.5292969-1.40625 7.0136719s.46875 4.8222656 1.40625 7.0136719c.9375 2.1914062 2.2207 4.1015625 3.84961 5.7304687 1.62891 1.6289063 3.53906 2.9121094 5.73047 3.8496094 2.1914.9375 4.52929 1.40625 7.01367 1.40625zm0-2.2148438c-2.17969 0-4.22461-.4160156-6.13477-1.2480468-1.91015-.8320313-3.57421-1.9628906-4.99218-3.3925782-1.41797-1.4296874-2.54297-3.0996093-3.375-5.0097656-.83203-1.9101562-1.24805-3.9550781-1.24805-6.1347656s.41602-4.2246094 1.24805-6.1347656c.83203-1.9101563 1.95703-3.5742188 3.375-4.9921875 1.41797-1.4179688 3.08203-2.5429688 4.99218-3.375 1.91016-.8320313 3.95508-1.2480469 6.13477-1.2480469s4.22461.4160156 6.13477 1.2480469c1.91015.8320312 3.57421 1.9570312 4.99218 3.375 1.41797 1.4179687 2.54297 3.0820312 3.375 4.9921875.83203 1.9101562 1.24805 3.9550781 1.24805 6.1347656s-.41602 4.2246094-1.24805 6.1347656c-.83203 1.9101563-1.95703 3.5800782-3.375 5.0097656-1.41797 1.4296876-3.08203 2.5605469-4.99218 3.3925782-1.91016.8320312-3.95508 1.2480468-6.13477 1.2480468zm5.57227-9.1054687c.3164 0 .58007-.1054687.79101-.3164063.21094-.2109374.31641-.4746093.31641-.7910156 0-.3164062-.10547-.5800781-.31641-.7910156l-4.78125-4.78125 4.78125-4.78125c.21094-.2109375.31641-.4746094.31641-.7910156 0-.3164063-.10547-.5800782-.31641-.7910156-.21094-.2109376-.47461-.3164063-.79101-.3164063-.31641 0-.58008.1054687-.79102.3164063l-4.78125 4.78125-4.78125-4.78125c-.21094-.2109376-.47461-.3164063-.79102-.3164063-.3164 0-.58007.1054687-.79101.3164063-.21094.2109374-.31641.4746093-.31641.7910156 0 .3164062.10547.5800781.31641.7910156l4.78125 4.78125-4.78125 4.78125c-.21094.2109375-.31641.4746094-.31641.7910156 0 .3164063.10547.5800782.31641.7910156.21094.2109376.47461.3164063.79101.3164063.31641 0 .58008-.1054687.79102-.3164063l4.78125-4.78125 4.78125 4.78125c.21094.2109376.47461.3164063.79102.3164063z" fill="#aaa" transform="translate(-1384 -20)"/></svg>