<svg height="32" viewBox="0 0 26 32" width="26" xmlns="http://www.w3.org/2000/svg"><path d="m35.875 48.96875c1.9166667 0 3.671875-.3072917 5.265625-.921875s2.9739583-1.4739583 4.140625-2.578125 2.078125-2.4166667 2.734375-3.9375.984375-3.1770833.984375-4.96875c0-1.5-.1302083-2.734375-.390625-3.703125s-.7447917-2.046875-1.453125-3.234375c-.8125-1.3333333-1.234375-2.421875-1.265625-3.265625s-.046875-1.2864583-.046875-1.328125c.0416667-.1875.0260417-.3697917-.046875-.546875s-.1822917-.3177083-.328125-.421875c-.1458333-.125-.3072917-.1979167-.484375-.21875s-.3489583.0104167-.515625.09375c-.0416667.0208333-.4427083.3020833-1.203125.84375s-1.328125 1.5-1.703125 2.875c-.1041667.3541667-.1875.7083333-.25 1.0625s-.1145833.6979167-.15625 1.03125c-.1458333-.25-.2864583-.4947917-.421875-.734375s-.2552083-.4635417-.359375-.671875c-.5208333-1.1666667-.875-2.34375-1.0625-3.53125s-.2864583-2.2708333-.296875-3.25.0260417-1.78125.109375-2.40625.125-.9375.125-.9375c.0416667-.1666667.0364583-.3333333-.015625-.5s-.140625-.3125-.265625-.4375c-.1458333-.1041667-.3020833-.1770833-.46875-.21875s-.3333333-.0416667-.5 0c-.0625.0208333-.4375.171875-1.125.453125s-1.46875.7864583-2.34375 1.515625-1.7291667 1.7135417-2.5625 2.953125-1.4270833 2.828125-1.78125 4.765625c-.2708333 1.4166667-.3541667 2.78125-.25 4.09375s.2604167 2.4270833.46875 3.34375c-.3125-.2083333-.609375-.46875-.890625-.78125s-.5677083-.6875-.859375-1.125c-.3958333-.6458333-.7291667-1.40625-1-2.28125s-.4166667-1.3229167-.4375-1.34375c-.0416667-.1875-.140625-.3489583-.296875-.484375s-.3385417-.2135417-.546875-.234375c-.1875-.0208333-.375.0104167-.5625.09375s-.3229167.21875-.40625.40625c-.0416667.0416667-.1875.3072917-.4375.796875s-.5208333 1.1197917-.8125 1.890625-.5572917 1.6302083-.796875 2.578125-.359375 1.9010417-.359375 2.859375c0 1.7916667.3177083 3.4479167.953125 4.96875s1.5208333 2.8333333 2.65625 3.9375 2.4947917 1.9635417 4.078125 2.578125 3.3125.921875 5.1875.921875z" fill="#28c76f" transform="translate(-23 -17)"/></svg>