<svg height="37" viewBox="0 0 32 37" width="32" xmlns="http://www.w3.org/2000/svg"><path d="m3.0625 36.2148438c.1875 0 .38671875-.0292969.59765625-.0878907.2109375-.0585937.3984375-.1464843.5625-.2636719l25.91015625-15.7148437c.328125-.1875.5859375-.4511719.7734375-.7910156.1875-.3398438.28125-.7089844.28125-1.1074219s-.09375-.7675781-.28125-1.1074219c-.1875-.3398437-.4453125-.6035156-.7734375-.7910156l-25.875-15.71484375c-.1640625-.1171875-.3515625-.20507812-.5625-.26367187s-.41015625-.08789063-.59765625-.08789063-.375.0234375-.5625.0703125-.36328125.1171875-.52734375.2109375c-.375.2109375-.66210938.4921875-.86132812.84375-.19921875.3515625-.29882813.7265625-.29882813 1.125l-.03515625 31.42968755c0 .3984374.09960938.7734374.29882812 1.125.19921876.3515624.48632813.6328124.86132813.84375.1640625.09375.33984375.1640624.52734375.2109374s.375.0703126.5625.0703126zm0-2.25.03515625-31.42968755 25.83984375 15.71484375z" fill="#aaa"/></svg>
