<svg height="37" viewBox="0 0 32 37" width="32" xmlns="http://www.w3.org/2000/svg"><path d="m282.21875 45.65625c.083333 0 .161458-.0104167.234375-.03125s.151042-.0520833.234375-.09375c.8125-.4166667 1.567708-.90625 2.265625-1.46875s1.333333-1.1822917 1.90625-1.859375 1.078125-1.4114583 1.515625-2.203125.791667-1.625 1.0625-2.5c.291667-.875.484375-1.7604167.578125-2.65625s.104167-1.7864583.03125-2.671875-.234375-1.7604167-.484375-2.625-.583333-1.703125-1-2.515625c-.4375-.875-.958333-1.6822917-1.5625-2.421875s-1.270833-1.40625-2-2-1.520833-1.1041667-2.375-1.53125-1.75-.765625-2.6875-1.015625c-.125-.0416667-.255208-.078125-.390625-.109375s-.276042-.0572917-.421875-.078125l2.5-1.25c.166667-.1041667.291667-.25.375-.4375s.072917-.3645833-.03125-.53125l-.09375-.25c-.104167-.1666667-.255208-.2760417-.453125-.328125s-.380208-.0364583-.546875.046875l-4.65625 2.40625-.3125.15625c-.083333.0625-.15625.1302083-.21875.203125s-.104167.1510417-.125.234375-.026042.171875-.015625.265625.046875.1822917.109375.265625l.15625.3125h.03125l2.875 4.5c.104167.1666667.25.2760417.4375.328125s.364583.0260417.53125-.078125l.25-.15625c.166667-.0833333.260417-.2291667.28125-.4375s-.020833-.3958333-.125-.5625l-1.84375-2.875c.1875.0416667.385417.078125.59375.109375s.40625.078125.59375.140625c1.625.4166667 3.072917 1.1458333 4.34375 2.1875s2.291667 2.3020833 3.0625 3.78125c.729167 1.4166667 1.15625 2.8958333 1.28125 4.4375s-.052083 3.0625-.53125 4.5625-1.21875 2.84375-2.21875 4.03125-2.197917 2.1458333-3.59375 2.875c-.229167.125-.385417.3125-.46875.5625s-.0625.5.0625.75c.083333.1666667.203125.296875.359375.390625s.317708.140625.484375.140625zm-11.71875 3.25 4.65625-2.40625.3125-.15625c.083333-.0625.15625-.1302083.21875-.203125s.104167-.1510417.125-.234375.026042-.171875.015625-.265625-.046875-.1822917-.109375-.265625l-.1875-.28125v-.03125l-2.875-4.5c-.104167-.1666667-.25-.2760417-.4375-.328125s-.375-.0260417-.5625.078125l-.25.15625c-.166667.0833333-.255208.2291667-.265625.4375s.036458.3958333.140625.5625l1.84375 2.875c-.083333-.0208333-.161458-.0416667-.234375-.0625s-.151042-.0416667-.234375-.0625c-.8125-.2083333-1.588542-.5-2.328125-.875s-1.427083-.8177083-2.0625-1.328125-1.213542-1.0833333-1.734375-1.71875-.979167-1.3177083-1.375-2.046875c-.708333-1.3958333-1.130208-2.8697917-1.265625-4.421875s.036458-3.078125.515625-4.578125 1.234375-2.84375 2.265625-4.03125 2.244792-2.1458333 3.640625-2.875c.229167-.125.385417-.3125.46875-.5625s.0625-.5-.0625-.75c-.125-.2291667-.3125-.3854167-.5625-.46875s-.489583-.0625-.71875.0625c-.833333.4166667-1.604167.90625-2.3125 1.46875s-1.354167 1.1875-1.9375 1.875-1.098958 1.421875-1.546875 2.203125-.807292 1.609375-1.078125 2.484375c-.291667.875-.484375 1.7604167-.578125 2.65625s-.104167 1.7864583-.03125 2.671875.234375 1.7604167.484375 2.625.583333 1.703125 1 2.515625c.458333.875.989583 1.6822917 1.59375 2.421875s1.28125 1.40625 2.03125 2 1.552083 1.109375 2.40625 1.546875 1.75.7708333 2.6875 1c.020833.0208333.041667.03125.0625.03125h.0625l-2.53125 1.3125c-.166667.0833333-.276042.21875-.328125.40625s-.026042.3645833.078125.53125l.09375.25c.104167.1666667.239583.2760417.40625.328125s.333333.0364583.5-.046875z" fill="#aaa" transform="translate(-261 -17)"/></svg>
