<svg height="37" viewBox="0 0 26 37" width="26" xmlns="http://www.w3.org/2000/svg"><path d="m1286.625 56.25c.32812 0 .59766-.1113281.80859-.3339844.21094-.2226562.31641-.4863281.31641-.7910156v-33.75c0-.3046875-.10547-.5683594-.31641-.7910156-.21093-.2226563-.48047-.3339844-.80859-.3339844h-7.875c-.30469 0-.56836.1113281-.79102.3339844-.22265.2226562-.33398.4863281-.33398.7910156v33.75c0 .3046875.11133.5683594.33398.7910156.22266.2226563.48633.3339844.79102.3339844zm14.625 0c.30469 0 .56836-.1113281.79102-.3339844.22265-.2226562.33398-.4863281.33398-.7910156v-33.75c0-.3046875-.11133-.5683594-.33398-.7910156-.22266-.2226563-.48633-.3339844-.79102-.3339844h-7.83984c-.30469 0-.56836.1113281-.79102.3339844-.22266.2226562-.33398.4863281-.33398.7910156v33.75c0 .3046875.11132.5683594.33398.7910156.22266.2226563.48633.3339844.79102.3339844zm-15.75-2.25h-5.625v-31.5h5.625zm14.625 0h-5.58984v-31.5h5.58984z" fill="#aaa" transform="translate(-1277 -20)"/></svg>